<?xml version="1.0" encoding="utf-8"?>
<!-- Generator: Adobe Illustrator 16.0.0, SVG Export Plug-In . SVG Version: 6.00 Build 0)  -->
<!DOCTYPE svg PUBLIC "-//W3C//DTD SVG 1.1//EN" "http://www.w3.org/Graphics/SVG/1.1/DTD/svg11.dtd">
<svg version="1.1" id="Layer_1" xmlns="http://www.w3.org/2000/svg" xmlns:xlink="http://www.w3.org/1999/xlink" x="0px" y="0px"
	 width="35px" height="35px" viewBox="0 0 35 35" enable-background="new 0 0 35 35" xml:space="preserve">
<rect y="-35.854" fill="#E6E6E6" width="35" height="35"/>
<g opacity="0.3">
	
		<polygon fill="none" stroke="#999999" stroke-width="3" stroke-linecap="round" stroke-linejoin="round" stroke-miterlimit="10" points="
		11.36,33.438 9.789,26.877 15.608,21.593 27.31,18.95 33.195,21.593 27.378,26.877 	"/>
	<polygon fill="#999999" points="11.36,33.438 9.789,26.877 15.608,21.593 27.31,18.95 33.195,21.593 27.378,26.877 	"/>
</g>
<g>
	<polygon fill="none" stroke="#FFFFFF" stroke-width="5" stroke-miterlimit="10" points="67.211,19.138 58.141,28.208 58.141,-2 
		56.441,-2 56.441,28.208 47.371,19.138 46.171,20.339 57.291,31.458 68.41,20.339 	"/>
	<polygon fill="none" stroke="#86D2FF" stroke-width="2" stroke-miterlimit="10" points="67.211,19.138 58.141,28.208 58.141,-2 
		56.441,-2 56.441,28.208 47.371,19.138 46.171,20.339 57.291,31.458 68.41,20.339 	"/>
	<polygon fill="#86D2FF" points="67.211,19.138 58.141,28.208 58.141,-2 56.441,-2 56.441,28.208 47.371,19.138 46.171,20.339 
		57.291,31.458 68.41,20.339 	"/>
</g>
<polygon fill="#86D2FF" points="-7.184,12.299 -7.183,23.172 -26.838,3.517 -29.667,6.345 -10.011,26 -20.883,26 -20.883,30 
	-3.183,30 -3.184,12.3 "/>
<line fill="none" stroke="#000000" stroke-miterlimit="10" x1="-18.667" y1="32.625" x2="-18.667" y2="0"/>
<polyline fill="none" stroke="#000000" stroke-miterlimit="10" points="-29.768,21.522 -18.667,32.625 -7.565,21.522 "/>
<g>
	<path fill="none" stroke="#FFFFFF" stroke-width="2" stroke-linecap="round" stroke-linejoin="round" stroke-miterlimit="10" d="
		M26.625-21.688c0,6.282-6.48,9.245-9.125,17.959c-2.646-8.714-9.125-11.677-9.125-17.959c0-5.04,4.085-9.125,9.125-9.125
		S26.625-26.727,26.625-21.688z"/>
	<path fill="#86D2FF" d="M26.625-21.688c0,6.282-6.48,9.245-9.125,17.959c-2.646-8.714-9.125-11.677-9.125-17.959
		c0-5.04,4.085-9.125,9.125-9.125S26.625-26.727,26.625-21.688z"/>
</g>
<g>
	<circle fill="#4D4D4D" cx="17.5" cy="-21.688" r="3.334"/>
</g>
<g>
	
		<polygon fill="none" stroke="#FFFFFF" stroke-width="3" stroke-linecap="round" stroke-linejoin="round" stroke-miterlimit="10" points="
		11.301,33.438 2.507,20.831 2.508,10.678 11.301,5.601 20.095,10.678 20.095,20.832 	"/>
	<polygon fill="#86D2FF" points="11.301,33.438 2.507,20.831 2.508,10.678 11.301,5.601 20.095,10.678 20.095,20.832 	"/>
</g>
<polygon fill="#4D4D4D" points="11.301,20.004 7.195,17.633 7.195,12.892 11.301,10.521 15.406,12.892 15.407,17.632 "/>
</svg>
